# xmcd
#
# Track frame offsets: 
#        150
#        28427
#        59369
#        84038
#        109697
#        138207
#        163141
#        184298
#        210374
#
# Disc length: 3131 seconds
#
# Revision: 2
# Processed by: cddbd v1.5.2PL0 Copyright (c) Steve Scherf et al.
# Submitted via: ExactAudioCopyFreeDBPlugin 1.0
#
DISCID=750c3909
DTITLE=Various Artist - Celtic Grooves
DYEAR=2007
DGENRE=Celtic
TTITLE0=Tall Trees, Long Shadows
TTITLE1=Toss The Feathers
TTITLE2=The Mason's Apron
TTITLE3=Pigeon On The Gate
TTITLE4=Bretton Air, Gavotte and Jig
TTITLE5=Scotland The Brave
TTITLE6=The Burning Bench
TTITLE7=Sporting Paddy
TTITLE8=Morning Has Broken and Monaghan Jig
EXTD=Somerset Entertainment Ltd.  2007\n\nGet in the groove with these
EXTD=danceable remixes of traditional celtic favorites. \n\nMay your 
EXTD=dance be joyous \nMay your feet be light \nMay the sun always shi
EXTD=ne \nAnd your fire burn bright 
EXTT0=
EXTT1=
EXTT2=
EXTT3=
EXTT4=
EXTT5=
EXTT6=
EXTT7=
EXTT8=
PLAYORDER=
